<?xml version="1.0" encoding="UTF-8"?>
<svg version="1.1" xmlns="http://www.w3.org/2000/svg" width="500" height="500">
<path d="M0 0 C165 0 330 0 500 0 C500 165 500 330 500 500 C335 500 170 500 0 500 C0 335 0 170 0 0 Z " fill="#FEFEFE" transform="translate(0,0)"/>
<path d="M0 0 C2.8125 1.5 2.8125 1.5 5 3 C8.02970006 3.28276418 8.02970006 3.28276418 10.1875 1.5 C13.89881325 -0.47936707 16.8725735 -0.62663358 21 0 C24.58552881 1.63687185 25.79315055 2.68972583 28 6 C28.22705078 8.8190918 28.22705078 8.8190918 28.1953125 12.19921875 C28.18886719 13.40771484 28.18242187 14.61621094 28.17578125 15.86132812 C28.15902344 17.12396484 28.14226562 18.38660156 28.125 19.6875 C28.11597656 20.96173828 28.10695313 22.23597656 28.09765625 23.54882812 C28.07405722 26.69929854 28.03818579 29.84967262 28 33 C24.04 33 20.08 33 16 33 C15.67 25.74 15.34 18.48 15 11 C12.525 10.505 12.525 10.505 10 10 C8.34920558 11.65079442 8.77450553 13.63736179 8.68359375 15.91015625 C8.62075195 17.39418945 8.62075195 17.39418945 8.55664062 18.90820312 C8.51732422 19.94912109 8.47800781 20.99003906 8.4375 22.0625 C8.37272461 23.62967773 8.37272461 23.62967773 8.30664062 25.22851562 C8.20018895 27.81883972 8.09955692 30.40940175 8 33 C3.71 33 -0.58 33 -5 33 C-5.495 21.615 -5.495 21.615 -6 10 C-7.65 10 -9.3 10 -11 10 C-13.08745045 13.13117567 -13.27653996 14.06946224 -13.4140625 17.66796875 C-13.47207031 19.00698242 -13.47207031 19.00698242 -13.53125 20.37304688 C-13.57765625 21.76620117 -13.57765625 21.76620117 -13.625 23.1875 C-13.68300781 24.59805664 -13.68300781 24.59805664 -13.7421875 26.03710938 C-13.83642674 28.35775066 -13.91930123 30.67884841 -14 33 C-17.63 33 -21.26 33 -25 33 C-25 22.44 -25 11.88 -25 1 C-21.7 1 -18.4 1 -15 1 C-14.67 1.99 -14.34 2.98 -14 4 C-13.175 3.34 -12.35 2.68 -11.5 2 C-7.54118525 -0.62985094 -4.68553223 -0.52061469 0 0 Z " fill="#060606" transform="translate(230,221)"/>
<path d="M0 0 C3.86828201 2.00138108 6.4668396 4.93469687 8 9 C8.30078125 12.4609375 8.30078125 12.4609375 8.3125 16.375 C8.32925781 17.66148437 8.34601563 18.94796875 8.36328125 20.2734375 C7.89453618 25.08185467 6.61208936 28.53904402 3 31.8125 C-1.01243062 34.19488068 -4.41789095 34.24116363 -9 34 C-10.32 33.34 -11.64 32.68 -13 32 C-13.33 36.29 -13.66 40.58 -14 45 C-17.96 45 -21.92 45 -26 45 C-26 30.48 -26 15.96 -26 1 C-22.7 1 -19.4 1 -16 1 C-15.67 1.99 -15.34 2.98 -15 4 C-14.071875 3.01 -14.071875 3.01 -13.125 2 C-8.7568501 -0.79561594 -5.05911517 -0.94706636 0 0 Z " fill="#050505" transform="translate(122,221)"/>
<path d="M0 0 C3.9614221 2.97106658 6.9035406 6.08562181 8.5 10.875 C8.5 13.185 8.5 15.495 8.5 17.875 C0.58 17.875 -7.34 17.875 -15.5 17.875 C-15.17 19.855 -14.84 21.835 -14.5 23.875 C-11.2 23.875 -7.9 23.875 -4.5 23.875 C-4.17 22.555 -3.84 21.235 -3.5 19.875 C0.46 19.875 4.42 19.875 8.5 19.875 C8.30546664 24.05746733 7.79067582 25.57756428 4.8125 28.625 C-1.39265816 33.17642497 -8.00266402 33.70567075 -15.5 32.875 C-20.35093843 31.58032386 -23.55705551 29.31093457 -26.5 25.25 C-29.09969391 20.54244616 -29.29461306 16.12827525 -28.5 10.875 C-26.70646165 5.59402596 -23.89000798 3.07604749 -19.5 -0.125 C-13.37717837 -2.16594054 -6.11034767 -1.96404032 0 0 Z " fill="#090909" transform="translate(190.5,222.125)"/>
<path d="M0 0 C3.61237526 2.19186406 5.67067783 4.47326771 7.4375 8.375 C7.4375 11.345 7.4375 14.315 7.4375 17.375 C-0.4825 17.375 -8.4025 17.375 -16.5625 17.375 C-15.5725 19.355 -14.5825 21.335 -13.5625 23.375 C-11.2525 23.375 -8.9425 23.375 -6.5625 23.375 C-5.9025 22.055 -5.2425 20.735 -4.5625 19.375 C-0.6025 19.375 3.3575 19.375 7.4375 19.375 C7.17040484 23.20336401 6.66864937 25.08441223 4.25 28.125 C-1.06195691 32.37456553 -6.1796524 32.82669077 -12.80859375 32.69140625 C-18.3866223 32.05052637 -22.17092495 29.83793787 -26 25.8125 C-29.45513514 20.42248918 -29.13750905 14.57688334 -28.5625 8.375 C-26.63755102 4.06311428 -24.07189966 1.25509077 -19.8125 -0.9296875 C-13.46948279 -2.88985601 -6.08349609 -2.71137092 0 0 Z " fill="#070707" transform="translate(313.5625,222.625)"/>
<path d="M0 0 C3.3 0 6.6 0 10 0 C10.66 0.99 11.32 1.98 12 3 C12.495 2.505 12.99 2.01 13.5 1.5 C17.11630158 -0.66978095 19.82231616 -0.20888419 24 0 C24 3.63 24 7.26 24 11 C22.72125 11.12375 21.4425 11.2475 20.125 11.375 C16.65209064 11.69042399 16.65209064 11.69042399 14 14 C13.63105418 16.03060659 13.63105418 16.03060659 13.5859375 18.3515625 C13.52792969 19.62773437 13.52792969 19.62773437 13.46875 20.9296875 C13.42234375 22.26386719 13.42234375 22.26386719 13.375 23.625 C13.31699219 24.97078125 13.31699219 24.97078125 13.2578125 26.34375 C13.16341224 28.56215605 13.08061195 30.78105013 13 33 C8.71 33 4.42 33 0 33 C0 22.11 0 11.22 0 0 Z " fill="#0F0F0F" transform="translate(136,221)"/>
<path d="M0 0 C0 3.63 0 7.26 0 11 C-4.455 11.495 -4.455 11.495 -9 12 C-9.88639389 14.65918166 -10.17989025 16.48064641 -10.31640625 19.23046875 C-10.35830078 20.03291016 -10.40019531 20.83535156 -10.44335938 21.66210938 C-10.48267578 22.49548828 -10.52199219 23.32886719 -10.5625 24.1875 C-10.60568359 25.03248047 -10.64886719 25.87746094 -10.69335938 26.74804688 C-10.79931518 28.83184433 -10.9001502 30.91590103 -11 33 C-14.96 33 -18.92 33 -23 33 C-23 22.44 -23 11.88 -23 1 C-19.37 1 -15.74 1 -12 1 C-11.67 1.66 -11.34 2.32 -11 3 C-10.484375 2.505 -9.96875 2.01 -9.4375 1.5 C-6.19319983 -0.49649241 -3.73782666 -0.21564385 0 0 Z " fill="#050505" transform="translate(350,221)"/>
<path d="M0 0 C4.29 0 8.58 0 13 0 C13 10.89 13 21.78 13 33 C8.71 33 4.42 33 0 33 C0 22.11 0 11.22 0 0 Z " fill="#141414" transform="translate(266,221)"/>
<path d="M0 0 C3.62416894 1.64734952 6.12851416 3.45402683 8 7 C8.54500097 11.99584223 8.09938694 15.01507393 5 19 C2.40063719 21.79190821 0.99140092 22.00110956 -2.875 22.5 C-7.65776952 22.33014463 -9.75730635 20.40087383 -13 17 C-14.21762731 13.34711807 -14.39075851 10.84245864 -14 7 C-10.35973954 0.90120542 -6.94453392 -0.47081586 0 0 Z " fill="#F4F4F4" transform="translate(360,192)"/>
<path d="M0 0 C3.3 0 6.6 0 10 0 C10 0.33 10 0.66 10 1 C7.03 1 4.06 1 1 1 C1 11.56 1 22.12 1 33 C4.63 33 8.26 33 12 33 C12 26.4 12 19.8 12 13 C12.33 13 12.66 13 13 13 C13 19.27 13 25.54 13 32 C13.66 32 14.32 32 15 32 C15.33 36.29 15.66 40.58 16 45 C15.01 45 14.02 45 13 45 C12.67 44.34 12.34 43.68 12 43 C11.34 43.66 10.68 44.32 10 45 C7 45.3125 7 45.3125 4 45 C3.34 44.01 2.68 43.02 2 42 C1.67 42.99 1.34 43.98 1 45 C-1.64 45 -4.28 45 -7 45 C-7.33 43.35 -7.66 41.7 -8 40 C-7.01 39.505 -7.01 39.505 -6 39 C-5.67 39.99 -5.34 40.98 -5 42 C-4.01 42.33 -3.02 42.66 -2 43 C-2.33 41.02 -2.66 39.04 -3 37 C-2.34 37 -1.68 37 -1 37 C-0.67 24.79 -0.34 12.58 0 0 Z " fill="#C8C7C7" transform="translate(204,221)"/>
<path d="M0 0 C3.62416894 1.64734952 6.12851416 3.45402683 8 7 C8.54500097 11.99584223 8.09938694 15.01507393 5 19 C2.40063719 21.79190821 0.99140092 22.00110956 -2.875 22.5 C-7.65776952 22.33014463 -9.75730635 20.40087383 -13 17 C-14.21762731 13.34711807 -14.39075851 10.84245864 -14 7 C-10.35973954 0.90120542 -6.94453392 -0.47081586 0 0 Z M-11 7 C-11.70862744 9.83450976 -11.70862744 12.16549024 -11 15 C-8.56226471 18.44150865 -7.14182881 19.762119 -3 20.625 C1.14182881 19.762119 2.56226471 18.44150865 5 15 C5.70862744 12.16549024 5.70862744 9.83450976 5 7 C2.56226471 3.55849135 1.14182881 2.237881 -3 1.375 C-7.14182881 2.237881 -8.56226471 3.55849135 -11 7 Z " fill="#878787" transform="translate(360,192)"/>
<path d="M0 0 C3 0.25 3 0.25 5 2.25 C5.30078125 4.74609375 5.30078125 4.74609375 5.3125 7.6875 C5.33763672 9.13962891 5.33763672 9.13962891 5.36328125 10.62109375 C5 13.25 5 13.25 3.640625 15.109375 C2 16.25 2 16.25 -0.5625 16.0625 C-3 15.25 -3 15.25 -5 13.25 C-5.265625 10.71875 -5.265625 10.71875 -5.25 7.75 C-5.25515625 6.7703125 -5.2603125 5.790625 -5.265625 4.78125 C-4.86151555 0.93032467 -3.79224855 0.31602071 0 0 Z " fill="#F5F5F5" transform="translate(113,229.75)"/>
<path d="M0 0 C4.29 0 8.58 0 13 0 C13 2.97 13 5.94 13 9 C8.71 9 4.42 9 0 9 C0 6.03 0 3.06 0 0 Z " fill="#222222" transform="translate(266,209)"/>
<path d="M0 0 C2.14576637 -0.02685938 4.29162645 -0.04633088 6.4375 -0.0625 C7.63246094 -0.07410156 8.82742188 -0.08570313 10.05859375 -0.09765625 C13 0 13 0 14 1 C14.14115161 3.67058851 14.04247107 6.32432238 14 9 C13.01 9 12.02 9 11 9 C11 6.69 11 4.38 11 2 C10.01 2.495 10.01 2.495 9 3 C8.34227572 6.02934491 8.34227572 6.02934491 8 9 C7.34 9 6.68 9 6 9 C6 6.69 6 4.38 6 2 C5.01 2 4.02 2 3 2 C3 4.31 3 6.62 3 9 C2.01 9 1.02 9 0 9 C0 6.03 0 3.06 0 0 Z " fill="#978F8F" transform="translate(289,257)"/>
<path d="M0 0 C2.14576637 -0.02685938 4.29162645 -0.04633088 6.4375 -0.0625 C7.63246094 -0.07410156 8.82742187 -0.08570313 10.05859375 -0.09765625 C13 0 13 0 14 1 C14.14115161 3.67058851 14.04247107 6.32432238 14 9 C13.01 9 12.02 9 11 9 C11 6.69 11 4.38 11 2 C10.01 2.495 10.01 2.495 9 3 C8.34227572 6.02934491 8.34227572 6.02934491 8 9 C7.34 9 6.68 9 6 9 C6 6.69 6 4.38 6 2 C5.01 2 4.02 2 3 2 C3 4.31 3 6.62 3 9 C2.01 9 1.02 9 0 9 C0 6.03 0 3.06 0 0 Z " fill="#978F8F" transform="translate(170,257)"/>
<path d="M0 0 C0.66 0.33 1.32 0.66 2 1 C1.34 2.98 0.68 4.96 0 7 C0.66 7.66 1.32 8.32 2 9 C2 10.32 2 11.64 2 13 C-0.31 13.33 -2.62 13.66 -5 14 C-6.00007341 10.8886605 -5.87515553 9.11166412 -5 6 C-5 4.68 -5 3.36 -5 2 C-2.625 0.9375 -2.625 0.9375 0 0 Z " fill="#9B9494" transform="translate(276,256)"/>
<path d="M0 0 C3 0.1875 3 0.1875 5 1.1875 C4.67 2.1775 4.34 3.1675 4 4.1875 C1.03 3.6925 1.03 3.6925 -2 3.1875 C-1.67 5.1675 -1.34 7.1475 -1 9.1875 C0.98 8.8575 2.96 8.5275 5 8.1875 C4.67 9.5075 4.34 10.8275 4 12.1875 C0.625 12.3125 0.625 12.3125 -3 12.1875 C-5 10.1875 -5 10.1875 -5.265625 8.3125 C-5.26046875 7.61125 -5.2553125 6.91 -5.25 6.1875 C-5.25515625 5.48625 -5.2603125 4.785 -5.265625 4.0625 C-4.77267103 0.58282488 -3.30484083 0.20655255 0 0 Z " fill="#868686" transform="translate(357,196.8125)"/>
<path d="M0 0 C2.5 0.25 2.5 0.25 4.5 2.25 C4.75 4.75 4.75 4.75 4.5 7.25 C2.5 9.25 2.5 9.25 0 9.5 C-2.5 9.25 -2.5 9.25 -4.5 7.25 C-4.75 4.75 -4.75 4.75 -4.5 2.25 C-2.5 0.25 -2.5 0.25 0 0 Z " fill="#8F8787" transform="translate(189.5,256.75)"/>
<path d="M0 0 C1.97909398 -0.02686553 3.95828971 -0.04633375 5.9375 -0.0625 C7.03964844 -0.07410156 8.14179688 -0.08570313 9.27734375 -0.09765625 C12 0 12 0 13 1 C13.14115161 3.67058851 13.04247107 6.32432238 13 9 C12.34 9 11.68 9 11 9 C11 6.69 11 4.38 11 2 C10.01 2.33 9.02 2.66 8 3 C7.67 4.98 7.34 6.96 7 9 C6.34 9 5.68 9 5 9 C5 6.69 5 4.38 5 2 C4.01 2.495 4.01 2.495 3 3 C2.34227572 6.02934491 2.34227572 6.02934491 2 9 C1.34 9 0.68 9 0 9 C0 6.03 0 3.06 0 0 Z " fill="#8F8787" transform="translate(226,257)"/>
<path d="M0 0 C3.375 -0.125 3.375 -0.125 7 0 C9 2 9 2 9.125 5.625 C9.08375 6.73875 9.0425 7.8525 9 9 C8.01 9 7.02 9 6 9 C6 6.69 6 4.38 6 2 C5.01 2 4.02 2 3 2 C3 4.31 3 6.62 3 9 C2.01 9 1.02 9 0 9 C0 6.03 0 3.06 0 0 Z " fill="#9D9696" transform="translate(250,257)"/>
<path d="M0 0 C0.78375 0.04125 1.5675 0.0825 2.375 0.125 C2.705 1.775 3.035 3.425 3.375 5.125 C1.725 5.125 0.075 5.125 -1.625 5.125 C-1.625 5.785 -1.625 6.445 -1.625 7.125 C0.025 7.125 1.675 7.125 3.375 7.125 C3.045 7.785 2.715 8.445 2.375 9.125 C0 9.25 0 9.25 -2.625 9.125 C-4.625 7.125 -4.625 7.125 -4.875 4.625 C-4.51649553 1.03995533 -3.59522993 0.17120143 0 0 Z " fill="#9D9696" transform="translate(283.625,256.875)"/>
<path d="M0 0 C0.33 1.32 0.66 2.64 1 4 C-0.98 4 -2.96 4 -5 4 C-5 4.66 -5 5.32 -5 6 C-3.35 5.67 -1.7 5.34 0 5 C0 5.99 0 6.98 0 8 C-1.99954746 8.04254356 -4.00041636 8.04080783 -6 8 C-7 7 -7 7 -7.0625 3.4375 C-7.041875 2.303125 -7.02125 1.16875 -7 0 C-4.3333581 -1.33332095 -2.83319697 -0.67102033 0 0 Z " fill="#9B9494" transform="translate(312,258)"/>
<path d="M0 0 C0.33 1.32 0.66 2.64 1 4 C-0.98 4 -2.96 4 -5 4 C-5 4.66 -5 5.32 -5 6 C-3.35 5.67 -1.7 5.34 0 5 C0 5.99 0 6.98 0 8 C-1.99954746 8.04254356 -4.00041636 8.04080783 -6 8 C-7 7 -7 7 -7.0625 3.4375 C-7.041875 2.303125 -7.02125 1.16875 -7 0 C-4.3333581 -1.33332095 -2.83319697 -0.67102033 0 0 Z " fill="#9B9494" transform="translate(214,258)"/>
<path d="M0 0 C0.66 1.65 1.32 3.3 2 5 C-1.96 5 -5.92 5 -10 5 C-9.67 3.68 -9.34 2.36 -9 1 C-6.04335481 -0.4783226 -3.25770263 -0.06032783 0 0 Z " fill="#F3F3F3" transform="translate(307,229)"/>
<path d="M0 0 C1.65 0 3.3 0 5 0 C7 6.75 7 6.75 7 9 C4.36 9 1.72 9 -1 9 C-1.33 7.68 -1.66 6.36 -2 5 C-0.35 4.67 1.3 4.34 3 4 C2.01 4.495 2.01 4.495 1 5 C1 5.66 1 6.32 1 7 C1.99 7 2.98 7 4 7 C4 5.35 4 3.7 4 2 C2.35 2.33 0.7 2.66 -1 3 C-0.67 2.01 -0.34 1.02 0 0 Z " fill="#9D9595" transform="translate(262,257)"/>
<path d="M0 0 C1.2065625 0.0309375 1.2065625 0.0309375 2.4375 0.0625 C4.4375 6.8125 4.4375 6.8125 4.4375 9.0625 C2.1275 9.0625 -0.1825 9.0625 -2.5625 9.0625 C-2.8925 7.7425 -3.2225 6.4225 -3.5625 5.0625 C-2.2425 4.4025 -0.9225 3.7425 0.4375 3.0625 C-0.8825 2.4025 -2.2025 1.7425 -3.5625 1.0625 C-2.5625 0.0625 -2.5625 0.0625 0 0 Z " fill="#9A9292" transform="translate(244.5625,256.9375)"/>
<path d="M0 0 C3.5625 0.1875 3.5625 0.1875 5.5625 2.1875 C5.5625 3.1775 5.5625 4.1675 5.5625 5.1875 C1.9325 5.1875 -1.6975 5.1875 -5.4375 5.1875 C-4.19786866 0.22897465 -4.19786866 0.22897465 0 0 Z " fill="#F8F8F8" transform="translate(180.4375,228.8125)"/>
<path d="M0 0 C0.33 0 0.66 0 1 0 C1 6.27 1 12.54 1 19 C1.66 19 2.32 19 3 19 C3.33 23.29 3.66 27.58 4 32 C3.01 32 2.02 32 1 32 C-0.2138361 21.33558287 -0.09531193 10.71729679 0 0 Z " fill="#787373" transform="translate(216,234)"/>
<path d="M0 0 C0.66 0 1.32 0 2 0 C1.7581864 7.13350126 1.7581864 7.13350126 -1.625 11 C-5.45937934 13.27222479 -7.62047674 13.43795233 -12 13 C-12 12.34 -12 11.68 -12 11 C-10.741875 10.773125 -9.48375 10.54625 -8.1875 10.3125 C-5.00540662 9.51978769 -4.21108791 9.25875292 -2.0625 6.625 C-1.16435844 4.40606204 -0.43528706 2.35055014 0 0 Z " fill="#828282" transform="translate(366,201)"/>
<path d="M0 0 C2.33294775 -0.04241723 4.66702567 -0.04092937 7 0 C8 1 8 1 8.09765625 2.84765625 C8.04882812 5.92382812 8.04882812 5.92382812 8 9 C7.34 9 6.68 9 6 9 C6 6.69 6 4.38 6 2 C5.01 2.33 4.02 2.66 3 3 C2.67 4.98 2.34 6.96 2 9 C1.34 9 0.68 9 0 9 C0 6.03 0 3.06 0 0 Z " fill="#8F8787" transform="translate(315,257)"/>
<path d="M0 0 C0.33 0 0.66 0 1 0 C1 3.96 1 7.92 1 12 C-1.31 12 -3.62 12 -6 12 C-6.33 10.35 -6.66 8.7 -7 7 C-6.34 6.67 -5.68 6.34 -5 6 C-4.67 6.99 -4.34 7.98 -4 9 C-3.01 9.33 -2.02 9.66 -1 10 C-1.33 8.02 -1.66 6.04 -2 4 C-1.34 4 -0.68 4 0 4 C0 2.68 0 1.36 0 0 Z " fill="#887F7F" transform="translate(203,254)"/>
<path d="M0 0 C0.66 0.33 1.32 0.66 2 1 C1.67 1.721875 1.34 2.44375 1 3.1875 C-0.00603529 6.01697427 -0.16977402 8.02895466 0 11 C-1.875 10.75 -1.875 10.75 -4 10 C-5.3125 8.0625 -5.3125 8.0625 -6 6 C-5.67 5.34 -5.34 4.68 -5 4 C-3.35 4 -1.7 4 0 4 C0 2.68 0 1.36 0 0 Z " fill="#9C9595" transform="translate(202,253)"/>
<path d="M0 0 C0.66 0 1.32 0 2 0 C2 0.66 2 1.32 2 2 C2.66 2 3.32 2 4 2 C4 2.66 4 3.32 4 4 C3.34 4 2.68 4 2 4 C2 5.65 2 7.3 2 9 C2.66 9 3.32 9 4 9 C4 9.66 4 10.32 4 11 C2.68 10.67 1.36 10.34 0 10 C0 8.02 0 6.04 0 4 C-0.66 4 -1.32 4 -2 4 C-2 3.34 -2 2.68 -2 2 C-1.34 2 -0.68 2 0 2 C0 1.34 0 0.68 0 0 Z " fill="#8E8686" transform="translate(326,255)"/>
<path d="M0 0 C2.475 0.495 2.475 0.495 5 1 C4.01 1.495 4.01 1.495 3 2 C3 4.31 3 6.62 3 9 C2.01 9 1.02 9 0 9 C0 6.03 0 3.06 0 0 Z " fill="#A39C9C" transform="translate(289,257)"/>
<path d="M0 0 C2.475 0.495 2.475 0.495 5 1 C4.01 1.495 4.01 1.495 3 2 C3 4.31 3 6.62 3 9 C2.01 9 1.02 9 0 9 C0 6.03 0 3.06 0 0 Z " fill="#A39C9C" transform="translate(170,257)"/>
<path d="M0 0 C3.17538332 0.34021964 4.02276865 1.02466604 6.25 3.4375 C8 6 8 6 8 8 C7.34 8 6.68 8 6 8 C5.67 9.32 5.34 10.64 5 12 C4.57682292 9.98177083 4.15364583 7.96354167 3.73046875 5.9453125 C3.07691162 3.62953451 3.07691162 3.62953451 0 2 C0 1.34 0 0.68 0 0 Z " fill="#8C8C8C" transform="translate(360,193)"/>
<path d="M0 0 C1.65 0.33 3.3 0.66 5 1 C5 2.32 5 3.64 5 5 C2.69 5.33 0.38 5.66 -2 6 C-1.34 4.02 -0.68 2.04 0 0 Z " fill="#B2ACAC" transform="translate(273,264)"/>
<path d="M0 0 C2.64 0 5.28 0 8 0 C7.67 0.99 7.34 1.98 7 3 C6.34 3 5.68 3 5 3 C5 4.65 5 6.3 5 8 C4.731875 7.38125 4.46375 6.7625 4.1875 6.125 C3.04443152 3.7004767 3.04443152 3.7004767 0 2 C0 1.34 0 0.68 0 0 Z " fill="#F7F6F6" transform="translate(300,255)"/>
<path d="M0 0 C0.66 0 1.32 0 2 0 C3.4783226 2.95664519 3.06032783 5.74229737 3 9 C2.01 9 1.02 9 0 9 C0 6.03 0 3.06 0 0 Z " fill="#A39C9C" transform="translate(250,257)"/>
<path d="M0 0 C0.66 0.33 1.32 0.66 2 1 C1.6875 2.875 1.6875 2.875 1 5 C-2.4352048 7.29013653 -3.985331 7.17842973 -8 7 C-6 4 -6 4 -3.375 3.3125 C-2.59125 3.209375 -1.8075 3.10625 -1 3 C-0.67 2.01 -0.34 1.02 0 0 Z " fill="#ECECEC" transform="translate(362,205)"/>
<path d="M0 0 C2.31 0 4.62 0 7 0 C7 1.65 7 3.3 7 5 C6.01 5 5.02 5 4 5 C4 4.34 4 3.68 4 3 C2.68 3 1.36 3 0 3 C0 2.01 0 1.02 0 0 Z " fill="#E7E5E5" transform="translate(259,259)"/>
<path d="M0 0 C0.99 0 1.98 0 3 0 C3 1.65 3 3.3 3 5 C1.68 4.67 0.36 4.34 -1 4 C-0.67 2.68 -0.34 1.36 0 0 Z " fill="#F5F4F4" transform="translate(199,259)"/>
<path d="M0 0 C1.32 0.33 2.64 0.66 4 1 C3.67 2.32 3.34 3.64 3 5 C2.01 5 1.02 5 0 5 C0 3.35 0 1.7 0 0 Z " fill="#F5F4F4" transform="translate(188,259)"/>
<path d="M0 0 C1.65 0 3.3 0 5 0 C5 2.31 5 4.62 5 7 C4.67 7 4.34 7 4 7 C4 5.35 4 3.7 4 2 C2.35 2.33 0.7 2.66 -1 3 C-0.67 2.01 -0.34 1.02 0 0 Z " fill="#948C8C" transform="translate(262,257)"/>
<path d="M0 0 C0.99 0.33 1.98 0.66 3 1 C3.5625 2.9375 3.5625 2.9375 4 5 C4.66 5.66 5.32 6.32 6 7 C1.125 6.125 1.125 6.125 0 5 C-0.04063832 3.33382885 -0.042721 1.66611905 0 0 Z " fill="#A19A9A" transform="translate(185,259)"/>
<path d="M0 0 C1.37562854 1.28965176 2.70766393 2.62689293 4 4 C4 4.66 4 5.32 4 6 C2.35 5.67 0.7 5.34 -1 5 C-0.67 3.35 -0.34 1.7 0 0 Z " fill="#928A8A" transform="translate(197,260)"/>
<path d="M0 0 C1.65 0.33 3.3 0.66 5 1 C4.67 1.99 4.34 2.98 4 4 C2.35 3.67 0.7 3.34 -1 3 C-0.67 2.01 -0.34 1.02 0 0 Z " fill="#919191" transform="translate(357,197)"/>
</svg>
